<?xml version="1.0" encoding="iso-8859-1"?>
<!-- Uploaded to: SVG Repo, www.svgrepo.com, Generator: SVG Repo Mixer Tools -->
<svg height="800px" width="800px" version="1.1" id="Capa_1" xmlns="http://www.w3.org/2000/svg" xmlns:xlink="http://www.w3.org/1999/xlink" 
	 viewBox="0 0 23.603 23.603" xml:space="preserve">
<g>
	<path style="fill:#fff;" d="M14.06,22.534v-8.048h0.54l6.139-9.218h-3.323l1.75-3.145c0.066,0.013,0.129,0.04,0.2,0.04
		c0.598,0,1.082-0.484,1.082-1.081S19.964,0,19.366,0c-0.596,0-1.08,0.484-1.08,1.082c0,0.341,0.166,0.63,0.411,0.83l-1.868,3.356
		H8.446C8.544,4.859,8.547,4.421,8.44,3.966c-0.357-1.517-1.881-2.46-3.397-2.102C3.526,2.22,2.582,3.744,2.94,5.261
		s1.881,2.46,3.398,2.103C6.412,7.346,6.47,7.328,6.535,7.308l4.781,7.18h0.54v8.048c-2.019,0.056-3.52,0.27-3.52,0.525
		c0,0.299,2.069,0.542,4.622,0.542s4.62-0.242,4.62-0.542C17.576,22.805,16.079,22.591,14.06,22.534z M3.435,5.372l1.822-0.428
		l-0.98,1.583C3.895,6.244,3.593,5.848,3.435,5.372z M4.659,6.757l0.726-1.175L5.92,6.386l0.136,0.577
		C5.565,7.04,5.08,6.961,4.659,6.757z M6.114,5.269L6.069,5.077L5.8,4.909L5.636,5.178l0.021,0.09H5.58l0.056-0.09L5.564,4.872
		L5.259,4.943l0.164-0.266L5.156,4.51L3.333,4.94c-0.069-0.497,0.023-0.987,0.24-1.411L5.156,4.51l0.306-0.071L5.389,4.132
		L3.811,3.155c0.287-0.371,0.687-0.658,1.158-0.808L5.39,4.133l0.266,0.165l0.167-0.267L5.404,2.252
		c0.484-0.06,0.956,0.034,1.369,0.244l-0.95,1.535l0.072,0.307l0.306-0.072l0.948-1.529c0.36,0.279,0.644,0.662,0.796,1.119
		l-1.744,0.41L6.036,4.533l0.266,0.166l-0.306,0.07l0.072,0.308l0.311,0.191L6.114,5.269L6.114,5.269z M6.304,4.699l1.743-0.411
		c0.047,0.337,0.017,0.67-0.073,0.982H7.225L6.304,4.699z M11.863,13.462L7.09,6.292h9.169l-1.286,2.311l0.584-0.002l1.286-2.309
		h1.982l-4.774,7.17H11.863z M12.761,12.572l2.211-3.968L8.883,8.606l3.248,4.656h1.717l3.181-4.661h-1.472l-2.35,4.218
		L12.761,12.572z M13.398,9.493c0.315,0,0.571,0.256,0.571,0.571c0,0.314-0.257,0.569-0.571,0.569c-0.313,0-0.569-0.256-0.569-0.569
		C12.829,9.749,13.085,9.493,13.398,9.493z M10.825,9.75c-0.172,0-0.315-0.14-0.315-0.314s0.142-0.315,0.315-0.315
		c0.173,0,0.315,0.14,0.315,0.315C11.14,9.608,10.998,9.75,10.825,9.75z M13.083,10.063c0-0.174,0.141-0.315,0.315-0.315
		s0.315,0.141,0.315,0.315s-0.141,0.315-0.315,0.315C13.224,10.378,13.083,10.237,13.083,10.063z M5.767,4.366L5.589,4.41
		l0.069-0.112L5.767,4.366z M5.869,4.799L5.8,4.909L5.69,4.84L5.869,4.799z M5.967,4.642l0.029,0.127l-0.127,0.03L5.967,4.642z
		 M5.589,4.41L5.492,4.566l-0.03-0.127L5.589,4.41z M5.492,4.566l0.041,0.179L5.422,4.676L5.492,4.566z M5.967,4.642L5.925,4.463
		l0.111,0.069L5.967,4.642z M5.69,4.84L5.564,4.872L5.533,4.745L5.69,4.84z M5.767,4.366l0.128-0.029l0.029,0.126L5.767,4.366z"/>
</g>
</svg>